<svg xmlns="http://www.w3.org/2000/svg" viewBox="0 0 1200 630" width="1200" height="630">
  <rect width="1200" height="630" fill="#0f1117"/>
  <rect x="40" y="40" width="1120" height="550" rx="16" fill="#161921" stroke="#2c3044" stroke-width="2"/>

  <!-- Redis Icon -->
  <circle cx="600" cy="200" r="60" fill="#DC382D" opacity="0.15"/>
  <path d="M580 195 L600 180 L620 195 L600 210 Z" fill="none" stroke="#DC382D" stroke-width="3" stroke-linejoin="round"/>
  <path d="M580 205 L600 220 L620 205" fill="none" stroke="#DC382D" stroke-width="2.5" stroke-linejoin="round"/>
  <path d="M580 215 L600 230 L620 215" fill="none" stroke="#DC382D" stroke-width="2" stroke-linejoin="round" opacity="0.7"/>

  <!-- Title -->
  <text x="600" y="310" font-family="Inter, system-ui, sans-serif" font-size="48" font-weight="700" fill="#e2e4e9" text-anchor="middle">Redis Geliştirici El Kitabı</text>

  <!-- Subtitle -->
  <text x="600" y="370" font-family="Inter, system-ui, sans-serif" font-size="24" fill="#9ca3b4" text-anchor="middle">Kapsamlı Türkçe Redis 8 / .NET 9 Production Reference</text>

  <!-- Stats -->
  <text x="600" y="430" font-family="Inter, system-ui, sans-serif" font-size="18" fill="#DC382D" text-anchor="middle">20 Bölüm · 18 SVG Diyagram · 120+ Kod Örneği</text>

  <!-- Level badges -->
  <rect x="310" y="470" width="100" height="32" rx="16" fill="#34d399" opacity="0.2"/>
  <text x="360" y="491" font-family="Inter, system-ui, sans-serif" font-size="14" fill="#34d399" text-anchor="middle">🟢 Temel</text>

  <rect x="430" y="470" width="100" height="32" rx="16" fill="#fb923c" opacity="0.2"/>
  <text x="480" y="491" font-family="Inter, system-ui, sans-serif" font-size="14" fill="#fb923c" text-anchor="middle">🟡 Orta</text>

  <rect x="550" y="470" width="100" height="32" rx="16" fill="#DC382D" opacity="0.2"/>
  <text x="600" y="491" font-family="Inter, system-ui, sans-serif" font-size="14" fill="#DC382D" text-anchor="middle">🟠 İleri</text>

  <rect x="670" y="470" width="110" height="32" rx="16" fill="#c76a6a" opacity="0.2"/>
  <text x="725" y="491" font-family="Inter, system-ui, sans-serif" font-size="14" fill="#c76a6a" text-anchor="middle">🔴 Uzman</text>

  <!-- Footer -->
  <text x="600" y="560" font-family="Inter, system-ui, sans-serif" font-size="16" fill="#6b7280" text-anchor="middle">oxara.github.io/redis-handbook</text>
</svg>
